<svg width="16" height="16" viewBox="0 0 16 16" fill="none" xmlns="http://www.w3.org/2000/svg">
    <path d="M11.667 2.66683C11.667 1.93045 11.07 1.3335 10.3337 1.3335H3.00033C2.26699 1.3335 1.66699 1.9335 1.66699 2.66683V10.0002C1.66699 10.7365 2.26395 11.3335 3.00033 11.3335V2.66683H11.667ZM13.667 4.00016H5.66699C4.93366 4.00016 4.33366 4.60016 4.33366 5.3335V13.3335C4.33366 14.0668 4.93366 14.6668 5.66699 14.6668H13.667C14.4003 14.6668 15.0003 14.0668 15.0003 13.3335V5.3335C15.0003 4.60016 14.4003 4.00016 13.667 4.00016ZM13.667 13.3335H5.66699V5.3335H13.667V13.3335Z" fill="black"/>
</svg>
