<svg width="19" height="19" viewBox="0 0 19 19" fill="none" xmlns="http://www.w3.org/2000/svg">
    <path fill-rule="evenodd" clip-rule="evenodd" d="M8 14C11.3137 14 14 11.3137 14 8C14 4.68629 11.3137 2 8 2C4.68629 2 2 4.68629 2 8C2 11.3137 4.68629 14 8 14ZM14.1944 13.063C15.3229 11.6839 16 9.92102 16 8C16 3.58172 12.4183 0 8 0C3.58172 0 0 3.58172 0 8C0 12.4183 3.58172 16 8 16C9.92102 16 11.6839 15.3229 13.063 14.1944L13.4343 14.5657L13.2929 14.7071L17.2929 18.7071L18.7071 17.2929L14.7071 13.2929L14.5657 13.4343L14.1944 13.063Z" fill="#d1d5db"/>
</svg>
