<svg width="32" height="32" viewBox="0 0 32 32" fill="none" xmlns="http://www.w3.org/2000/svg">
    <rect width="32" height="32" rx="16" fill="#030712"/>
    <g clip-path="url(#clip0_0_1)">
        <path d="M25.0004 20H22.2874L20.1138 17.8904L19.7151 17.5046L19.3284 17.9022L17.291 20H15.0086L16.1399 18.691L18.0466 16.4836L18.3586 16.1236L18.0324 15.7743L16.1388 13.7474L14.723 12.2311L14.5791 12.0774H14.5835L15.0239 12.0398C15.0942 12.0333 15.1645 12.029 15.2348 12.0236C15.4688 12.0086 15.7038 12.0011 15.9367 12.0011C16.2398 12.0011 16.5463 12.014 16.8483 12.0398L17.291 12.0774C17.3788 12.1623 17.6864 12.4664 18.6496 13.4358C18.9121 13.7002 19.167 13.957 19.368 14.1601L19.7766 14.5728L20.1698 14.1451L22.071 12.0774L22.0941 12.0752L22.5521 12.0376C22.8498 12.0129 23.1518 12 23.4495 12C23.7472 12 24.0503 12.0129 24.348 12.0376H24.3523L24.8268 12.0774L21.5405 15.7431L21.2088 16.1128L21.5559 16.4686L24.9993 20H25.0004Z" fill="white"/>
        <path d="M16.1395 16.0946V17.8581L15.0378 19.1338L14.5886 19.6529L14.2898 19.9989H13.9812V14.4954L11.5813 16.9823L11.5648 16.9952L9.1484 14.4965V20H7.4734L7 19.3982V12.0774H7.01318C7.74799 12.0011 8.48938 12.0011 9.22419 12.0763H9.23298C9.23298 12.0763 9.23627 12.0785 9.23737 12.0795L11.5648 14.5599V14.5631H11.5681L13.867 12.1107L14.1734 12.4396L16.1384 14.5438V16.0946H16.1395Z" fill="#74FFD3"/>
    </g>
    <defs>
        <clipPath id="clip0_0_1">
            <rect width="18" height="8" fill="white" transform="translate(7 12)"/>
        </clipPath>
    </defs>
</svg>
