<svg width="648" height="76" viewBox="0 0 648 76" fill="none" xmlns="http://www.w3.org/2000/svg">
    <g clip-path="url(#clip0_63_4215)">
        <path d="M382.702 47.3516H388.832L397.242 38.0416V10.8816L388.822 1.57163L386.142 1.48163C368.322 0.831629 334.502 1.14163 316.682 1.59163L325.152 10.2516V75.2916H345.532V47.3616H347.432C347.432 47.3616 347.502 47.3516 347.532 47.3516H360.392L381.562 75.2816H402.142L382.702 47.3516ZM377.252 31.0516H345.532V15.5416H377.252V31.0516Z" fill="white"/>
        <path d="M510.572 1.38154L509.122 1.57154L473.872 75.2815L496.222 75.2915L504.982 58.9615L543.932 59.1215L553.842 73.3715L568.002 57.1415L539.102 1.60154C529.642 0.221537 520.042 0.151537 510.572 1.38154ZM511.522 45.7915C513.412 42.1615 516.842 35.7615 519.792 30.2615C522.752 24.7715 525.232 20.1815 525.232 20.1815L538.182 45.7915H511.522Z" fill="#75FFD3"/>
        <path d="M621.302 1.57157L625.682 1.20157C631.122 0.741567 636.592 0.741567 642.032 1.20157L646.392 1.57157L613.452 39.1216L647.962 75.2916H623.262L599.842 52.0716L577.772 75.2916H556.992L587.492 39.2216L553.082 1.57157L557.132 1.22157C562.662 0.751567 568.222 0.751567 573.742 1.22157L577.772 1.57157C580.572 4.33157 600.402 24.7916 600.402 24.7916L621.292 1.57157H621.302Z" fill="#75FFD3"/>
        <path d="M170.172 12.0416V75.2816H190.562V51.9016H234.572L242.482 42.2216V10.8816L233.072 1.57158C215.982 0.861584 198.862 0.831584 181.772 1.47158L179.172 1.57158M224.282 37.8116H190.562V15.4316H224.282V37.8116Z" fill="white"/>
        <path d="M322.772 15.5417H267.552V29.2817H292.212L304.802 41.9217H267.522V62.4217H309.032L322.152 75.2617V75.2916H256.172L246.372 64.8117V1.57165C266.132 0.931653 289.152 0.861653 308.902 1.57165L322.772 15.5417Z" fill="white"/>
        <path d="M267.551 61.7116L268.371 62.4216H267.521V41.9216H268.721L267.551 43.0916V61.7116Z" fill="white"/>
        <path d="M306.212 62.3716V62.4216H306.052C306.052 62.4216 306.152 62.3916 306.212 62.3716Z" fill="white"/>
        <path d="M484.542 1.5716V47.5216L470.422 75.2816H464.902V24.0716L443.052 47.2116L442.902 47.3316L420.902 24.0816V75.2916H405.652L401.342 69.6916V1.5716H401.462C408.152 0.861598 414.902 0.861598 421.592 1.5616H421.672C421.672 1.5616 421.702 1.5816 421.712 1.5916L442.902 24.6716V24.7016H442.932L464.092 1.6316C464.092 1.6316 464.122 1.6116 464.132 1.6116C470.912 0.881598 477.762 0.871598 484.552 1.5716H484.542Z" fill="#75FFD3"/>
        <path d="M443.922 24.7016H443.892V24.6716L443.922 24.7016Z" fill="white"/>
        <path d="M104.522 1.57157L126.172 28.6916L149.602 1.57157L153.662 1.22157C159.192 0.751567 164.742 0.751567 170.272 1.22157L174.302 1.57157L136.662 46.1916V75.2916H115.482V45.4216L79.4219 1.57157L83.8019 1.20157C89.2419 0.741567 94.7119 0.741567 100.152 1.20157L104.512 1.57157H104.522Z" fill="white"/>
        <path d="M306.021 62.4216H306.051C306.051 62.4216 306.041 62.4316 306.031 62.4316L306.021 62.4216Z" fill="white"/>
        <path d="M306.212 62.3716V62.4216H306.052C306.052 62.4216 306.152 62.3916 306.212 62.3716Z" fill="white"/>
        <path d="M306.212 62.3716V62.4216H306.052C306.052 62.4216 306.152 62.3916 306.212 62.3716Z" fill="white"/>
        <path d="M443.922 24.7016H443.892V24.6716L443.922 24.7016Z" fill="white"/>
        <path d="M77.8819 1.57159V75.2916H56.7119V1.57159L57.6319 1.48159C64.0719 0.841587 70.5519 0.841587 76.9919 1.48159L77.8919 1.57159H77.8819Z" fill="#75FFD3"/>
        <path d="M56.7117 27.4816V43.5016H21.6817V75.2916H0.511719V1.57159L1.43172 1.48159C7.87172 0.841587 14.3517 0.841587 20.7917 1.48159L21.6917 1.57159V27.4816H56.7217H56.7117Z" fill="white"/>
    </g>
    <defs>
        <clipPath id="clip0_63_4215">
            <rect width="647.46" height="74.78" fill="white" transform="translate(0.511719 0.511597)"/>
        </clipPath>
    </defs>
</svg>
