<svg width="208" height="24" viewBox="0 0 208 24" fill="none" xmlns="http://www.w3.org/2000/svg">
    <g clip-path="url(#clip0_752_9542)">
        <path d="M122.78 15.0323H124.749L127.451 12.0444V3.32761L124.746 0.339645L123.885 0.31076C118.16 0.102148 107.295 0.20164 101.57 0.346064L104.291 3.12542V23.9994H110.839V15.0356H111.449C111.449 15.0356 111.471 15.0323 111.481 15.0323H115.612L122.413 23.9962H129.025L122.78 15.0323ZM121.029 9.801H110.839V4.8232H121.029V9.801Z" fill="white"/>
        <path d="M163.86 0.279787L163.394 0.340766L152.07 23.9974L159.25 24.0006L162.064 18.7596L174.577 18.8109L177.761 23.3844L182.31 18.1755L173.026 0.350395C169.987 -0.0925046 166.902 -0.114971 163.86 0.279787ZM164.165 14.5328C164.773 13.3678 165.874 11.3138 166.822 9.54858C167.773 7.78661 168.57 6.31349 168.57 6.31349L172.73 14.5328H164.165Z" fill="#75FFD3"/>
        <path d="M199.43 0.340069L200.837 0.22132C202.585 0.0736874 204.342 0.0736874 206.09 0.22132L207.491 0.340069L196.908 12.3914L207.995 23.9999H200.06L192.536 16.5476L185.446 23.9999H178.77L188.569 12.4235L177.514 0.340069L178.815 0.227739C180.592 0.0768969 182.378 0.0768969 184.151 0.227739L185.446 0.340069C186.346 1.22587 192.716 7.79233 192.716 7.79233L199.427 0.340069H199.43Z" fill="#75FFD3"/>
        <path d="M54.5044 3.70053V23.9969H61.0548V16.4933H75.1933L77.7344 13.3865V3.32824L74.7114 0.340277C69.2211 0.112409 63.7212 0.102781 58.231 0.308183L57.3957 0.340277M71.8876 11.9712H61.0548V4.78853H71.8876V11.9712Z" fill="white"/>
        <path d="M103.528 4.82314H85.7887V9.23287H93.7108L97.7554 13.2896H85.779V19.8689H99.1143L103.329 23.9898V23.9994H82.1328L78.9845 20.6359V0.339588C85.3325 0.134185 92.7278 0.111719 99.0726 0.339588L103.528 4.82314Z" fill="white"/>
        <path d="M85.7869 19.6432L86.0503 19.871H85.7772V13.2917H86.1627L85.7869 13.6673V19.6432Z" fill="white"/>
        <path d="M98.2064 19.8542V19.8703H98.1548C98.1548 19.8703 98.187 19.8607 98.2064 19.8542Z" fill="white"/>
        <path d="M155.496 0.340494V15.0878L150.96 23.9971H149.186V7.56168L142.167 14.9883L142.119 15.0268L135.051 7.56489V24.0003H130.152L128.767 22.203V0.340494H128.806C130.955 0.112626 133.124 0.112626 135.273 0.337285H135.299C135.299 0.337285 135.308 0.343704 135.311 0.346913L142.119 7.75424V7.76387H142.128L148.926 0.359751C148.926 0.359751 148.936 0.353332 148.939 0.353332C151.117 0.119044 153.318 0.115835 155.499 0.340494H155.496Z" fill="#75FFD3"/>
        <path d="M142.447 7.76303H142.438V7.75391L142.447 7.76303Z" fill="white"/>
        <path d="M33.4137 0.340069L40.3688 9.044L47.8959 0.340069L49.2002 0.227739C50.9767 0.0768969 52.7597 0.0768969 54.5362 0.227739L55.8309 0.340069L43.7388 14.6605V23.9999H36.9346V14.4133L25.3502 0.340069L26.7573 0.22132C28.5049 0.0736874 30.2622 0.0736874 32.0098 0.22132L33.4105 0.340069H33.4137Z" fill="white"/>
        <path d="M98.1477 19.8699H98.1571C98.1571 19.8699 98.1539 19.873 98.1508 19.873L98.1477 19.8699Z" fill="white"/>
        <path d="M98.2064 19.8542V19.8703H98.1548C98.1548 19.8703 98.187 19.8607 98.2064 19.8542Z" fill="white"/>
        <path d="M98.2064 19.8542V19.8703H98.1548C98.1548 19.8703 98.187 19.8607 98.2064 19.8542Z" fill="white"/>
        <path d="M142.447 7.76303H142.438V7.75391L142.447 7.76303Z" fill="white"/>
        <path d="M24.8549 0.340407V24.0002H18.054V0.340407L18.3495 0.311523C20.4184 0.10612 22.5001 0.10612 24.569 0.311523L24.8581 0.340407H24.8549Z" fill="white"/>
        <path d="M18.0543 8.656V13.7975H6.80076V24.0002H-0.000213623V0.340407L0.295341 0.311523C2.36423 0.10612 4.44596 0.10612 6.51484 0.311523L6.80397 0.340407V8.656H18.0575H18.0543Z" fill="white"/>
    </g>
    <defs>
        <clipPath id="clip0_752_9542">
            <rect width="208" height="24" fill="white"/>
        </clipPath>
    </defs>
</svg>
