<svg width="40" height="19" viewBox="0 0 40 19" fill="none" xmlns="http://www.w3.org/2000/svg">
    <g clip-path="url(#clip0_151_8554)">
        <path d="M40.0002 18.1694H33.9714L29.141 13.3781L28.255 12.5018L27.3959 13.4049L22.8682 18.1694H17.7962L20.3102 15.1965L24.5474 10.1831L25.2406 9.36539L24.5157 8.57213L20.3077 3.96876L17.1615 0.524774L16.8418 0.175738H16.8516L17.8303 0.09031C17.9865 0.0756651 18.1427 0.0659019 18.299 0.0536978C18.8189 0.0195265 19.3412 0.00244081 19.8586 0.00244081C20.5323 0.00244081 21.2133 0.0317305 21.8845 0.09031L22.8682 0.175738C23.0634 0.368562 23.7468 1.05931 25.8874 3.26092C26.4708 3.86136 27.0371 4.44472 27.4837 4.90603L28.3917 5.8433L29.2655 4.87186L33.4906 0.175738L33.5418 0.170857L34.5596 0.0854284C35.2211 0.0292897 35.8923 0 36.5538 0C37.2152 0 37.8889 0.0292897 38.5504 0.0854284H38.5601L39.6146 0.175738L32.3117 8.50134L31.5745 9.34098L32.3458 10.1489L39.9978 18.1694H40.0002Z" fill="white"/>
        <path d="M20.31 9.29944V13.3048L17.8619 16.202L16.8636 17.381L16.1997 18.1669H15.5138V5.66751L10.1806 11.3155L10.144 11.3448L4.77422 5.66995V18.1693H1.05199L0 16.8025V0.17569H0.0292897C1.66219 0.00239251 3.30974 0.0023925 4.94264 0.173249H4.96217C4.96217 0.173249 4.96949 0.178131 4.97193 0.180572L10.144 5.81396V5.82128H10.1513L15.2599 0.251355L15.9409 0.998243L20.3075 5.77735V9.29944H20.31Z" fill="#74FFD3"/>
    </g>
    <defs>
        <clipPath id="clip0_151_8554">
            <rect width="40" height="18.1694" fill="white"/>
        </clipPath>
    </defs>
</svg>
